<?xml version="1.0" encoding="utf-8"?>
<!-- Generator: Adobe Illustrator 17.0.0, SVG Export Plug-In . SVG Version: 6.00 Build 0)  -->
<!DOCTYPE svg PUBLIC "-//W3C//DTD SVG 1.1//EN" "http://www.w3.org/Graphics/SVG/1.1/DTD/svg11.dtd">
<svg xmlns="http://www.w3.org/2000/svg" xmlns:xlink="http://www.w3.org/1999/xlink" version="1.1" id="Layer_1" x="0px" y="0px" width="50px" height="50px" viewBox="0 0 50 50" enable-background="new 0 0 50 50" xml:space="preserve" fill="#000000">

<g transform="translate(34,0)">
	<line fill="none" stroke="#000000" stroke-width="2" stroke-linecap="butt" stroke-miterlimit="10" x1="14" y1="13" x2="2" y2="13"/>
	<line fill="none" stroke="#000000" stroke-width="2" stroke-linecap="butt" stroke-miterlimit="10" x1="14" y1="18" x2="2" y2="18"/>
	<line fill="none" stroke="#000000" stroke-width="2" stroke-linecap="butt" stroke-miterlimit="10" x1="14" y1="23" x2="2" y2="23"/>
	<line fill="none" stroke="#000000" stroke-width="2" stroke-linecap="butt" stroke-miterlimit="10" x1="14" y1="28" x2="2" y2="28"/>
	<line fill="none" stroke="#000000" stroke-width="2" stroke-linecap="butt" stroke-miterlimit="10" x1="14" y1="33" x2="2" y2="33"/>
	<line fill="none" stroke="#000000" stroke-width="2" stroke-linecap="butt" stroke-miterlimit="10" x1="14" y1="38" x2="2" y2="38"/>
	<line fill="none" stroke="#000000" stroke-width="2" stroke-linecap="butt" stroke-miterlimit="10" x1="14" y1="43" x2="2" y2="43"/>
	<line fill="none" stroke="#000000" stroke-width="2" stroke-linecap="butt" stroke-miterlimit="10" x1="14" y1="48" x2="2" y2="48"/>
</g>

<g transform="translate(-17,0)">
	<line fill="none" stroke="#000000" stroke-width="2" stroke-linecap="butt" stroke-miterlimit="10" x1="31" y1="33" x2="19" y2="33"/>
	<line fill="none" stroke="#000000" stroke-width="2" stroke-linecap="butt" stroke-miterlimit="10" x1="31" y1="38" x2="19" y2="38"/>
	<line fill="none" stroke="#000000" stroke-width="2" stroke-linecap="butt" stroke-miterlimit="10" x1="31" y1="43" x2="19" y2="43"/>
	<line fill="none" stroke="#000000" stroke-width="2" stroke-linecap="butt" stroke-miterlimit="10" x1="31" y1="48" x2="19" y2="48"/>
</g>

<g transform="translate(-17,0)">
	<line fill="none" stroke="#000000" stroke-width="2" stroke-linecap="butt" stroke-miterlimit="10" x1="48" y1="23" x2="36" y2="23"/>
	<line fill="none" stroke="#000000" stroke-width="2" stroke-linecap="butt" stroke-miterlimit="10" x1="48" y1="28" x2="36" y2="28"/>
	<line fill="none" stroke="#000000" stroke-width="2" stroke-linecap="butt" stroke-miterlimit="10" x1="48" y1="33" x2="36" y2="33"/>
	<line fill="none" stroke="#000000" stroke-width="2" stroke-linecap="butt" stroke-miterlimit="10" x1="48" y1="38" x2="36" y2="38"/>
	<line fill="none" stroke="#000000" stroke-width="2" stroke-linecap="butt" stroke-miterlimit="10" x1="48" y1="43" x2="36" y2="43"/>
	<line fill="none" stroke="#000000" stroke-width="2" stroke-linecap="butt" stroke-miterlimit="10" x1="48" y1="48" x2="36" y2="48"/>
</g>
</svg>
